<?xml version="1.0" encoding="utf-8"?>
<svg version="1.0" width="1064.000000pt" height="445.000000pt" viewBox="0 0 1064.000000 445.000000" preserveAspectRatio="xMidYMid meet" xmlns="http://www.w3.org/2000/svg">
  <g transform="translate(0.000000,445.000000) scale(0.100000,-0.100000)" fill="#000000" stroke="none">
    <path d="M7871 3918 c-239 -36 -367 -290 -388 -768 l-6 -155 44 37 c107 91&#10;259 185 362 223 26 10 47 20 47 22 0 3 -9 18 -20 34 -54 75 -83 184 -68 252 5&#10;23 38 104 74 179 36 75 64 145 62 154 -4 24 -43 32 -107 22z" style="fill: rgb(255, 255, 255);"/>
    <path d="M8279 3801 c-51 -10 -122 -55 -158 -98 -46 -56 -98 -170 -126 -278&#10;-30 -118 -32 -140 -7 -130 34 13 188 44 255 51 43 4 67 11 64 18 -53 144 -50&#10;166 43 303 59 87 69 108 58 118 -17 17 -84 25 -129 16z" style="fill: rgb(255, 255, 255);"/>
    <path d="M8245 3234 c-171 -25 -270 -56 -409 -127 -333 -170 -568 -488 -632&#10;-858 -24 -142 -15 -364 20 -482 97 -325 342 -541 701 -619 89 -19 332 -16 432&#10;5 177 37 399 131 389 165 -3 9 -19 71 -36 137 -18 66 -33 122 -35 123 -2 2&#10;-39 -12 -82 -31 -452 -204 -875 -86 -1006 280 -111 307 -1 697 256 914 265&#10;223 654 245 964 54 l42 -25 42 72 c23 40 59 102 81 138 l38 65 -26 21 c-63 51&#10;-211 112 -354 145 -83 19 -317 33 -385 23z" style="fill: rgb(255, 255, 255);"/>
    <path d="M3326 3203 c-3 -10 -109 -466 -236 -1013 -127 -547 -233 -1003 -236&#10;-1013 -5 -16 6 -17 183 -15 l188 3 35 165 36 165 177 3 177 2 6 -26 c4 -14 21&#10;-90 38 -168 l31 -141 189 -3 189 -2 -6 27 c-3 16 -110 477 -236 1025 -127 549&#10;-231 1000 -231 1003 0 3 -67 5 -149 5 -134 0 -150 -2 -155 -17z m204 -1071&#10;c27 -155 50 -285 50 -287 0 -3 -47 -5 -105 -5 -58 0 -105 3 -105 8 0 4 23 133&#10;50 286 28 154 50 285 51 290 2 24 10 -20 59 -292z" style="fill: rgb(255, 255, 255);"/>
    <path d="M6185 3208 c-2 -7 -108 -461 -235 -1008 -127 -547 -233 -1005 -237&#10;-1017 l-5 -23 185 0 c139 0 186 3 189 12 3 7 20 84 39 171 l34 157 177 0 176&#10;0 20 -87 c11 -49 28 -125 38 -170 l17 -83 190 0 189 0 -5 23 c-4 12 -110 472&#10;-237 1021 -127 550 -233 1003 -236 1008 -9 14 -294 10 -299 -4z m249 -1340 l6&#10;-28 -105 0 c-81 0 -105 3 -105 13 0 14 84 495 97 552 4 22 20 -46 54 -240 26&#10;-148 50 -282 53 -297z" style="fill: rgb(255, 255, 255);"/>
    <path d="M990 2185 l0 -1025 410 0 410 0 0 180 0 180 -215 0 -215 0 0 845 0&#10;845 -195 0 -195 0 0 -1025z" style="fill: rgb(255, 255, 255);"/>
    <path d="M1980 2185 l0 -1025 410 0 410 0 0 180 0 180 -220 0 -220 0 0 845 0&#10;845 -190 0 -190 0 0 -1025z" style="fill: rgb(255, 255, 255);"/>
    <path d="M4260 3118 c0 -51 -9 -457 -20 -903 -11 -445 -20 -865 -20 -932 l0&#10;-123 179 0 c154 0 180 2 185 16 3 9 7 136 7 282 1 147 4 365 8 484 l6 217 134&#10;-319 134 -320 38 0 38 0 121 308 c67 169 125 311 129 315 5 5 12 -213 17 -485&#10;l9 -493 187 -3 187 -2 -5 132 c-7 181 -44 1729 -44 1834 l0 85 -106 -3 -105&#10;-3 -211 -493 c-116 -271 -213 -491 -216 -487 -3 3 -103 225 -223 493 l-218&#10;487 -105 3 -106 3 0 -93z" style="fill: rgb(255, 255, 255);"/>
    <path d="M8330 2445 l0 -135 -130 0 -130 0 0 -115 0 -115 130 0 130 0 0 -135&#10;0 -135 120 0 120 0 0 135 0 135 125 0 125 0 0 115 0 115 -125 0 -125 0 0 135&#10;0 135 -120 0 -120 0 0 -135z" style="fill: rgb(255, 255, 255);"/>
    <path d="M9200 2445 l0 -135 -130 0 -130 0 0 -115 0 -115 130 0 130 0 0 -135&#10;0 -135 120 0 120 0 0 135 0 135 125 0 125 0 0 115 0 115 -125 0 -125 0 0 135&#10;0 135 -120 0 -120 0 0 -135z" style="fill: rgb(255, 255, 255);"/>
  </g>
</svg>