<svg xmlns="http://www.w3.org/2000/svg" width="38" height="60" fill="none"><path fill="white" d="M8.322 5.014a3.44 3.44 0 0 0-1.42.62c-1.196.909-2.122 2.836-2.513 5.237a22 22 0 0 0-.248 3.13c0 1.134.133 2.584.323 3.586.043.222.065.42.047.434-.014.014-.19.158-.388.316-.674.538-1.446 1.367-1.977 2.124a11.4 11.4 0 0 0-1.956 4.87c-.108.704-.137 2.125-.05 2.829.19 1.622.678 2.993 1.514 4.25l.273.405-.08.133c-.56.94-1.036 2.3-1.259 3.607-.176 1.033-.197 1.31-.197 2.695 0 1.396.018 1.672.183 2.638.197 1.156.599 2.38 1.048 3.194.147.266.506.819.549.847.014.007-.029.14-.097.294a15.4 15.4 0 0 0-1.141 3.902c-.13.868-.148 1.148-.148 2.064 0 1.166.065 1.733.31 2.663l.035.136h3.076l-.1-.19c-.622-1.149-.679-3.28-.144-5.409.244-.983.52-1.705 1.037-2.699l.309-.603v-.37c0-.344-.008-.383-.119-.61-.086-.172-.2-.32-.405-.52a3.6 3.6 0 0 1-.8-1.13c-.884-1.917-1.056-4.763-.435-7.19.258-1.012.686-1.912 1.134-2.404.305-.337.463-.714.463-1.106 0-.405-.143-.739-.466-1.087-.926-.99-1.497-2.197-1.702-3.6-.29-1.999.237-4.178 1.436-5.904 1.174-1.694 2.821-2.781 4.662-3.072.413-.068 1.185-.058 1.615.021.47.083.765.058 1.066-.086.373-.175.56-.395.779-.897.194-.449.345-.693.75-1.199.488-.606.958-1.019 1.712-1.518a8.2 8.2 0 0 1 2.818-1.17c.355-.072.52-.082 1.184-.082s.829.01 1.184.082c1.432.29 2.854 1.03 3.988 2.078.244.226.829.951 1.015 1.253.072.118.198.37.277.556.219.502.405.721.779.897.29.14.595.169 1.048.094a4.9 4.9 0 0 1 1.963.032c2.383.48 4.457 2.444 5.376 5.075.8 2.308.574 4.723-.617 6.568a5.7 5.7 0 0 1-.693.872c-.628.671-.628 1.504-.003 2.193 1.026 1.123 1.669 3.887 1.475 6.324-.13 1.608-.542 3.047-1.11 3.862-.1.143-.308.387-.466.538-.205.2-.32.348-.406.52-.11.227-.118.266-.118.61v.37l.309.603c.517.994.793 1.716 1.037 2.7.528 2.099.481 4.188-.122 5.376-.05.1-.093.193-.093.204s.685.018 1.525.018h1.522l.04-.154c.02-.083.057-.209.075-.28.04-.158.118-.625.183-1.073.06-.453.06-2.118 0-2.62-.23-1.824-.614-3.27-1.242-4.637-.068-.155-.111-.288-.097-.295.018-.01.118-.154.226-.316.782-1.184 1.263-2.673 1.508-4.64.064-.542.064-2.871 0-3.392-.173-1.342-.381-2.254-.726-3.176-.143-.384-.524-1.195-.685-1.457l-.079-.133.273-.406c.836-1.256 1.324-2.627 1.514-4.25.087-.703.058-2.124-.05-2.827a11.5 11.5 0 0 0-1.956-4.87c-.531-.758-1.303-1.587-1.977-2.125a17 17 0 0 1-.388-.316c-.018-.015.004-.212.047-.434.434-2.265.42-5.09-.036-7.297-.395-1.924-1.113-3.453-2.039-4.336-.74-.703-1.493-1.005-2.397-.947-2.075.122-3.747 2.509-4.408 6.27-.107.607-.2 1.317-.2 1.51 0 .076-.015.137-.033.137s-.158-.072-.309-.161c-1.6-.948-3.38-1.454-5.114-1.454s-3.514.506-5.114 1.454c-.151.09-.291.161-.31.161-.017 0-.032-.06-.032-.136 0-.201-.096-.933-.2-1.511-.6-3.377-1.974-5.613-3.801-6.177-.252-.075-.966-.125-1.22-.086m.61 2.922c.517.409 1.092 1.579 1.422 2.889.06.237.125.51.143.61.015.097.054.316.087.484.14.761.204 1.583.211 2.585l.004.987-.248.366-.247.37h-.578a7.7 7.7 0 0 0-1.989.258c-.23.057-.452.114-.495.125-.068.015-.079-.007-.118-.301-.212-1.597-.201-3.367.032-4.838.258-1.64.861-3.126 1.45-3.564.14-.104.165-.1.327.029m20.465-.026c.356.262.747.959 1.038 1.849.585 1.78.75 4.224.441 6.55-.04.294-.05.316-.118.301l-.496-.125a7.7 7.7 0 0 0-1.988-.259h-.578l-.248-.37-.247-.365.003-.987c.008-1.393.137-2.48.445-3.69.327-1.3.905-2.47 1.418-2.878.162-.13.187-.133.33-.026"></path><path fill="white" d="M18.443 25.974c-.779.075-.99.104-1.364.18a9.4 9.4 0 0 0-1.98.681c-1.96.959-3.31 2.556-3.722 4.404-.083.366-.094.488-.094 1.106 0 .61.011.743.09 1.09.55 2.416 2.774 4.2 5.653 4.526.624.069 3.323.069 3.948 0 2.311-.261 4.3-1.514 5.193-3.273.237-.47.352-.775.46-1.252.078-.348.09-.481.09-1.091 0-.618-.012-.74-.094-1.106-.6-2.684-3.205-4.798-6.4-5.2-.416-.05-1.507-.094-1.78-.065m1.343 1.953a6.84 6.84 0 0 1 3 1.07c.463.308 1.116.954 1.396 1.377.345.524.542 1.059.632 1.709.04.297.018.524-.09 1.005-.169.717-.692 1.468-1.4 1.992-.33.24-1.015.588-1.435.724-.797.255-1.317.302-3.177.288-1.212-.011-1.428-.022-1.776-.087-1.188-.222-2.128-.696-2.81-1.417-.553-.582-.804-1.113-.94-1.97-.062-.399.053-1.06.287-1.616.283-.678 1.015-1.521 1.74-2.006a6.9 6.9 0 0 1 2.961-1.066c.391-.043 1.22-.043 1.612-.003"></path><path fill="white" d="M17.629 30.546c-.273.148-.463.52-.406.797.065.298.327.6.736.847.219.133.233.15.244.284.007.079-.022.305-.061.506a3.5 3.5 0 0 0-.075.463c.003.154.147.405.297.527.133.108.158.112.532.122.34.011.412.004.549-.06.352-.173.441-.489.312-1.095-.108-.506-.086-.585.183-.74.284-.165.585-.456.675-.653.172-.377.014-.804-.366-1.001a.8.8 0 0 0-.377-.068c-.262 0-.43.06-.74.258l-.175.111-.112-.068c-.455-.27-.538-.301-.814-.298-.198 0-.305.018-.402.068M8.915 26.38c-.635.2-1.11.667-1.353 1.33-.119.317-.176.816-.126 1.085.119.642.646 1.227 1.246 1.389.753.197 1.317.068 1.816-.428.29-.283.448-.53.606-.933.115-.283.122-.333.122-.735l.004-.431-.15-.309a1.86 1.86 0 0 0-1.178-.983c-.284-.072-.74-.068-.987.014M28.083 26.369c-.492.133-.93.499-1.163.98l-.15.308.003.43c0 .403.007.453.122.737.158.402.316.65.607.933.499.495 1.062.624 1.816.427.434-.115.868-.481 1.076-.908.18-.363.223-.625.166-1.037-.133-.944-.686-1.63-1.508-1.87-.24-.072-.707-.072-.969 0"></path></svg>